ply
format ascii 1.0
comment Created by Blender 2.62 (sub 0) - www.blender.org, source file: ''
element vertex 24
property float x
property float y
property float z
property float nx
property float ny
property float nz
property uchar red
property uchar green
property uchar blue
element face 12
property list uchar uint vertex_indices
end_header
-0.024000 0.085000 0.000000 -1.000000 0.000000 0.000000 255 0 2
-0.024000 -0.085000 0.000000 -1.000000 0.000000 0.000000 255 0 2
-0.024000 -0.085000 0.094000 -1.000000 0.000000 0.000000 255 0 2
-0.024000 0.085000 0.094000 -1.000000 -0.000000 -0.000000 255 0 2
-0.024000 0.085000 0.094000 0.000000 1.000000 -0.000000 255 0 2
0.024000 0.085000 0.094000 0.000000 1.000000 -0.000000 255 0 2
0.024000 0.085000 0.000000 0.000000 1.000000 -0.000000 255 0 2
-0.024000 0.085000 0.000000 0.000000 1.000000 -0.000000 255 0 2
0.024000 0.085000 0.094000 1.000000 0.000000 0.000000 255 0 2
0.024000 -0.085000 0.094000 1.000000 0.000000 0.000000 255 0 2
0.024000 -0.085000 0.000000 1.000000 0.000000 0.000000 255 0 2
0.024000 0.085000 0.000000 1.000000 0.000000 -0.000000 255 0 2
-0.024000 -0.085000 0.000000 -0.000000 -1.000000 -0.000000 255 0 2
0.024000 -0.085000 0.000000 -0.000000 -1.000000 -0.000000 255 0 2
0.024000 -0.085000 0.094000 -0.000000 -1.000000 -0.000000 255 0 2
-0.024000 -0.085000 0.094000 0.000000 -1.000000 -0.000000 255 0 2
-0.024000 -0.085000 0.000000 -0.000000 -0.000000 -1.000000 255 0 2
-0.024000 0.085000 0.000000 -0.000000 -0.000000 -1.000000 255 0 2
0.024000 0.085000 0.000000 -0.000000 -0.000000 -1.000000 255 0 2
0.024000 -0.085000 0.000000 -0.000000 0.000000 -1.000000 255 0 2
0.024000 -0.085000 0.094000 -0.000000 0.000000 1.000000 255 0 2
0.024000 0.085000 0.094000 -0.000000 0.000000 1.000000 255 0 2
-0.024000 0.085000 0.094000 -0.000000 0.000000 1.000000 255 0 2
-0.024000 -0.085000 0.094000 -0.000000 0.000000 1.000000 255 0 2
3 0 1 2
3 0 2 3
3 4 5 6
3 4 6 7
3 8 9 10
3 8 10 11
3 12 13 14
3 12 14 15
3 16 17 18
3 16 18 19
3 20 21 22
3 20 22 23
